<svg xmlns="http://www.w3.org/2000/svg" width="16" height="16"><path d="M8.118 3.144v5.2H9v3.3h1v-1h1v1.895h1v-1.442a4 4 0 0 0 2-3.453c0-2.21-1.79-4.5-4-4.5zM11 6.644a1 1 0 1 1 0 2 1 1 0 0 1 0-2z" fill="#b3b3b3"/><path d="M6.717 1.088c-.62.138-1.235.33-1.81.619.012.508.046.998.113 1.492-.224.143-.46.264-.668.432-.213.163-.43.32-.622.512a11.87 11.87 0 0 0-1.207-.704 9.225 9.225 0 0 0-1.218 1.594c.259.42.53.813.822 1.186h.008v3.597l.02.002 2.204.213a.24.24 0 0 1 .217.221l.067.973 1.925.138.131-.9a.237.237 0 0 1 .235-.203H8.2V9.11c-.034.008-.067.02-.103.02-.237 0-.428-.174-.428-.389V7.518c0-.215.191-.39.428-.39.036 0 .07.012.103.02v-4.76c-.453-.085-.365-.027-.812.008a12.774 12.774 0 0 0-.672-1.308zM4.97 6.352a1.33 1.33 0 1 1 .002 2.658 1.33 1.33 0 0 1-.002-2.658zm-2.84 3.941c0 .213.004.448.004.494 0 2.095 2.657 3.102 5.959 3.113h.008c.205 0-.1-.019.1-.027v-3.139H7.138l-.133.914a.238.238 0 0 1-.252.204l-2.35-.168a.239.239 0 0 1-.22-.221l-.069-.979-1.984-.191z" fill="#478cbf"/><path d="M5.098 6.877a.883.883 0 1 0 0 1.765.883.883 0 0 0 0-1.765z" fill="#414042"/></svg>