<svg xmlns="http://www.w3.org/2000/svg" width="16" height="16"><path d="M7 1l-.564 2.258a5 5 0 0 0-.69.28L3.758 2.343 2.344 3.758l1.195 1.994a5 5 0 0 0-.285.686L1 7v2l2.258.564a5 5 0 0 0 .28.688l-1.194 1.99.271.272 3.606-3.606A2 2 0 0 1 6 8a2 2 0 0 1 2-2 2 2 0 0 1 .908.22l3.606-3.605-.272-.271-1.994 1.195a5 5 0 0 0-.685-.285L9 1H7z" fill="#e0e0e0"/><path d="M8.914 14.914l.564-2.258a5 5 0 0 0 .69-.28l1.988 1.194 1.414-1.414-1.195-1.994a5 5 0 0 0 .285-.686l2.254-.562v-2l-2.258-.564a5 5 0 0 0-.28-.688l1.194-1.99-.272-.272-3.605 3.606a2 2 0 0 1 .22.908 2 2 0 0 1-2 2 2 2 0 0 1-.908-.22L3.4 13.298l.271.271 1.995-1.195a5 5 0 0 0 .685.285l.563 2.254z" fill="#fc9c9c" fill-opacity=".996"/></svg>