<svg xmlns="http://www.w3.org/2000/svg" width="64" height="64" viewBox="0 0 60 60"><defs><clipPath id="a"><path d="M0 595.276h841.89V0H0z"/></clipPath></defs><g clip-path="url(#a)" transform="matrix(1.25 0 0 -1.25 -94.25 269.374)"><g style="line-height:1.25;-inkscape-font-specification:'Montserrat Ultra-Bold'"><path style="-inkscape-font-specification:Montserrat" d="M88.131 169.55l-1.25 2.23q-.211-.03-.438-.03h-1.47v-2.2h-.578v6.933h2.048q1.047 0 1.642-.634.594-.634.594-1.743 0-.812-.329-1.376-.32-.555-.922-.802l1.337-2.377zm-1.704 2.823q.813 0 1.243.456.43.455.43 1.277 0 .842-.43 1.288-.43.455-1.243.455h-1.454v-3.476zm7.486-2.188v-.634h-3.869v6.932h3.752v-.634h-3.174v-2.466h2.83v-.624h-2.83v-2.574zm4.477 5.665h-1.923v.633h4.424v-.634h-1.923v-6.298h-.578zm4.562-6.349q-.595 0-1.071.337-.477.347-.75.95-.274.605-.274 1.367 0 .763.273 1.367.274.604.75.94.477.337 1.072.337.594 0 1.07-.336.477-.337.743-.941.274-.604.274-1.367 0-.762-.274-1.366-.266-.604-.743-.95-.476-.338-1.07-.338zm0 .624q.437 0 .781.248.352.257.547.723.196.465.196 1.06 0 .594-.196 1.059-.195.465-.547.713-.344.258-.781.258-.438 0-.79-.258-.344-.248-.547-.713-.196-.465-.196-1.06 0-.594.196-1.06.203-.465.547-.722.352-.248.79-.248zm4.901-.624q-.595 0-1.071.337-.477.347-.75.95-.274.605-.274 1.367 0 .763.273 1.367.274.604.75.94.477.337 1.072.337.594 0 1.07-.336.477-.337.743-.941.274-.604.274-1.367 0-.762-.274-1.366-.266-.604-.742-.95-.477-.338-1.071-.338zm0 .624q.437 0 .781.248.352.257.547.723.196.465.196 1.06 0 .594-.196 1.059-.195.465-.547.713-.344.258-.781.258-.438 0-.79-.258-.344-.248-.547-.713-.196-.465-.196-1.06 0-.594.196-1.06.203-.465.547-.722.352-.248.79-.248zm3.22 6.774h.555v-7.348h-.555zm3.209-7.398q-.5 0-.961.179-.454.188-.712.465l.25.555q.258-.258.65-.426.39-.159.812-.159.563 0 .829.218.273.228.273.634 0 .287-.148.446-.149.168-.375.247-.227.09-.602.169-.5.118-.805.237-.305.129-.524.426-.211.297-.211.822 0 .654.43 1.07.43.415 1.196.415.398 0 .797-.138.399-.129.657-.347l-.243-.564q-.508.445-1.211.445-.532 0-.805-.237-.266-.238-.266-.624 0-.297.148-.476.157-.178.383-.267.227-.08.626-.168.492-.12.79-.238.296-.119.507-.406.211-.287.211-.792 0-.683-.453-1.09-.446-.396-1.243-.396z" aria-label="RE Tools" font-weight="400" font-size="49.754" font-family="Montserrat" letter-spacing="0" word-spacing="0" fill="#6d6e71"/></g><path d="M101.49 209.173v-14.556h2.469v-9.237h2.799v2.799h2.8v-5.303h2.798v4.035a11.196 11.196 0 0 1 5.599 9.665c0 6.184-5.013 12.597-11.197 12.597zm8.067-9.798a2.8 2.8 0 1 0 0-5.598 2.8 2.8 0 0 0 0 5.598z" fill="#b3b3b3"/><path d="M97.568 214.928c-1.737-.386-3.457-.922-5.068-1.733.037-1.423.13-2.792.317-4.177-.626-.4-1.285-.739-1.87-1.208-.593-.457-1.2-.898-1.738-1.433a33.225 33.225 0 0 1-3.379 1.968c-1.262-1.358-2.447-2.82-3.411-4.46a36.336 36.336 0 0 1 2.301-3.32h.022v-10.069c.019 0 .037-.003.055-.005l6.172-.596a.674.674 0 0 0 .607-.618l.186-2.722 5.39-.388.367 2.52a.664.664 0 0 0 .656.569h3.548v3.214c-.096-.022-.187-.054-.29-.054-.661 0-1.197.487-1.197 1.087v3.428c0 .6.536 1.088 1.197 1.088.103 0 .194-.032.29-.054v13.323c-1.27.238-1.023.076-2.274-.022a35.755 35.755 0 0 1-1.881 3.663zm-4.888-14.734a3.72 3.72 0 1 0 .006-7.44 3.72 3.72 0 0 0-.006 7.44zm-7.949-11.032c.003-.597.011-1.253.011-1.384 0-5.863 7.439-8.682 16.68-8.714h.022c.575.002-.28.053.279.077v8.785h-2.974l-.372-2.558a.666.666 0 0 0-.705-.57l-6.577.471a.668.668 0 0 0-.618.618l-.191 2.739z" fill="#478cbf"/><path d="M93.038 198.724a2.47 2.47 0 1 1 0-4.94 2.47 2.47 0 0 1 0 4.94z" fill="#414042"/></g></svg>