<svg xmlns="http://www.w3.org/2000/svg" width="16" height="16"><path d="M7.963 1.002a1 1 0 0 0-.41.104l-6 3A1 1 0 0 0 1 5v6a1 1 0 0 0 .553.895l6 3a1 1 0 0 0 .894 0l6-3A1 1 0 0 0 15 11V5a1 1 0 0 0-.553-.894l-6-3a1 1 0 0 0-.484-.104zM8 3.119L11.764 5l-1.381.692-3.764-1.883L8 3.119zm-5 3.5l4 2v3.764l-4-2V6.619zm10 0v3.764l-4 2V8.619l4-2z" style="block-progression:tb;isolation:auto;mix-blend-mode:normal;text-decoration-color:#000;text-decoration-line:none;text-decoration-style:solid;text-indent:0;text-transform:none" fill-rule="evenodd" fill="#e0e0e0" solid-color="#000000" color="#000" white-space="normal"/><path d="M11.514 10.436h-1.72V9.18h5.016v1.256h-1.712v4.344h-1.584zm-5.571-6.17q.48.168.752.528.272.352.272.856 0 .736-.592 1.136-.592.4-1.712.4H1.639v-5.6h2.864q1.072 0 1.632.4.56.392.56 1.064 0 .4-.2.72-.192.312-.552.496zM3.207 2.73v1.08h1.088q.8 0 .8-.544 0-.536-.8-.536zm1.328 3.312q.832 0 .832-.568t-.832-.568H3.207v1.136z" style="line-height:1.25;-inkscape-font-specification:'Montserrat Ultra-Bold'" font-weight="800" font-size="8" font-family="Montserrat" letter-spacing="0" word-spacing="0" fill="#fc9c9c" fill-opacity=".996"/></svg>