<svg xmlns="http://www.w3.org/2000/svg" width="16" height="16"><path d="M7.963 1.002a1 1 0 0 0-.41.104l-6 3A1 1 0 0 0 1 5v6a1 1 0 0 0 .553.895l6 3a1 1 0 0 0 .894 0l6-3A1 1 0 0 0 15 11V5a1 1 0 0 0-.553-.894l-6-3a1 1 0 0 0-.484-.104zM8 3.119L11.764 5l-1.381.692-3.764-1.883L8 3.119zm-5 3.5l4 2v3.764l-4-2V6.619zm10 0v3.764l-4 2V8.619l4-2z" color="#000" fill="#e0e0e0" fill-rule="evenodd" solid-color="#000000" style="block-progression:tb;isolation:auto;mix-blend-mode:normal;text-decoration-color:#000;text-decoration-line:none;text-decoration-style:solid;text-indent:0;text-transform:none" white-space="normal"/><path style="line-height:1.25;-inkscape-font-specification:'PT Mono'" d="M10.154 1.147l.987 1.942.954-1.953.766.41-1.343 1.876 2.252-.167v.899l-2.185-.178 1.287 1.786-.744.433-1.031-1.986-.977 1.986-.798-.433 1.342-1.786-2.196.178v-.899l2.196.189L9.388 1.58z" font-family="PT Mono" letter-spacing="0" word-spacing="0" fill="#fc9c9c" fill-opacity=".996"/></svg>